<?xml version="1.0" encoding="UTF-8" standalone="no"?>
<!DOCTYPE svg PUBLIC "-//W3C//DTD SVG 1.1//EN"
 "http://www.w3.org/Graphics/SVG/1.1/DTD/svg11.dtd">
<!-- Generated by graphviz version 2.36.0 (20140111.2315)
 -->
<!-- Title: video_transcoding Pages: 1 -->
<svg width="746pt" height="420pt"
 viewBox="0.00 0.00 746.01 420.00" xmlns="http://www.w3.org/2000/svg" xmlns:xlink="http://www.w3.org/1999/xlink">
<g id="graph0" class="graph" transform="scale(1 1) rotate(0) translate(4 416)">
<title>video_transcoding</title>
<polygon fill="white" stroke="none" points="-4,4 -4,-416 742.012,-416 742.012,4 -4,4"/>
<!-- node1 -->
<g id="node1" class="node"><title>node1</title>
<ellipse fill="none" stroke="#607d8b" cx="447.012" cy="-336" rx="27" ry="18"/>
<text text-anchor="middle" x="447.012" y="-332.3" font-family="Times,serif" font-size="14.00" fill="#000000">new</text>
</g>
<!-- node2 -->
<g id="node2" class="node"><title>node2</title>
<polygon fill="none" stroke="#607d8b" points="368.365,-252 246.905,-252 215.659,-216 337.12,-216 368.365,-252"/>
<text text-anchor="middle" x="292.012" y="-230.3" font-family="Times,serif" font-size="14.00" fill="#000000">transcoding</text>
</g>
<!-- node1&#45;&gt;node2 -->
<g id="edge1" class="edge"><title>node1&#45;&gt;node2</title>
<path fill="none" stroke="#2ecc71" d="M421.467,-330.011C400.168,-324.967 369.743,-315.638 347.012,-300 331.827,-289.553 318.386,-273.863 308.593,-260.515"/>
<polygon fill="#2ecc71" stroke="#2ecc71" points="311.326,-258.317 302.703,-252.161 305.605,-262.351 311.326,-258.317"/>
<text text-anchor="middle" x="432.512" y="-288.8" font-family="Times,serif" font-size="14.00" fill="#7f8c8d">promote</text>
<text text-anchor="middle" x="432.512" y="-273.8" font-family="Times,serif" font-size="14.00" fill="#7f8c8d">if params.transcoding_required</text>
</g>
<!-- node5 -->
<g id="node5" class="node"><title>node5</title>
<ellipse fill="none" stroke="#607d8b" stroke-width="2" cx="540.012" cy="-111" rx="30.3206" ry="18"/>
<text text-anchor="middle" x="540.012" y="-107.3" font-family="Times,serif" font-size="14.00" fill="#000000">ready</text>
</g>
<!-- node1&#45;&gt;node5 -->
<g id="edge2" class="edge"><title>node1&#45;&gt;node5</title>
<path fill="none" stroke="#2ecc71" d="M472.084,-329.204C487.87,-324.193 507.234,-315.269 518.012,-300 552.136,-251.656 549.139,-178.305 544.36,-139.047"/>
<polygon fill="#2ecc71" stroke="#2ecc71" points="547.8,-138.369 542.994,-128.927 540.863,-139.305 547.8,-138.369"/>
<text text-anchor="middle" x="642.012" y="-237.8" font-family="Times,serif" font-size="14.00" fill="#7f8c8d">promote</text>
<text text-anchor="middle" x="642.012" y="-222.8" font-family="Times,serif" font-size="14.00" fill="#7f8c8d">if not params.transcoding_required</text>
</g>
<!-- node3 -->
<g id="node3" class="node"><title>node3</title>
<ellipse fill="none" stroke="#607d8b" cx="228.012" cy="-111" rx="27.4223" ry="18"/>
<text text-anchor="middle" x="228.012" y="-107.3" font-family="Times,serif" font-size="14.00" fill="#000000">error</text>
</g>
<!-- node2&#45;&gt;node3 -->
<g id="edge4" class="edge"><title>node2&#45;&gt;node3</title>
<path fill="none" stroke="#607d8b" d="M227.101,-229.413C148.315,-224.382 24.1603,-214.013 10.0121,-198 -3.52479,-182.679 -3.07497,-167.707 10.0121,-152 32.5159,-124.991 133.957,-116.16 190.185,-113.317"/>
<polygon fill="#607d8b" stroke="#607d8b" points="190.634,-116.8 200.46,-112.839 190.308,-109.808 190.634,-116.8"/>
<text text-anchor="middle" x="109.512" y="-170.8" font-family="Times,serif" font-size="14.00" fill="#7f8c8d">if not params.retry_limit_reached </text>
<text text-anchor="middle" x="109.512" y="-155.8" font-family="Times,serif" font-size="14.00" fill="#7f8c8d">and not params.transcoding_success</text>
</g>
<!-- node4 -->
<g id="node4" class="node"><title>node4</title>
<ellipse fill="none" stroke="#607d8b" stroke-width="2" cx="262.012" cy="-18" rx="38.0212" ry="18"/>
<text text-anchor="middle" x="262.012" y="-14.3" font-family="Times,serif" font-size="14.00" fill="#000000">rejected</text>
</g>
<!-- node2&#45;&gt;node4 -->
<g id="edge5" class="edge"><title>node2&#45;&gt;node4</title>
<path fill="none" stroke="#607d8b" d="M292.638,-215.895C293.39,-183.656 293.017,-111.937 278.012,-54 277.233,-50.9925 276.209,-47.9227 275.055,-44.9127"/>
<polygon fill="#607d8b" stroke="#607d8b" points="278.236,-43.449 271.065,-35.6495 271.807,-46.2183 278.236,-43.449"/>
<text text-anchor="middle" x="390.512" y="-106.8" font-family="Times,serif" font-size="14.00" fill="#7f8c8d">if params.retry_limit_reached </text>
<text text-anchor="middle" x="390.512" y="-91.8" font-family="Times,serif" font-size="14.00" fill="#7f8c8d">and not params.transcoding_success</text>
</g>
<!-- node2&#45;&gt;node5 -->
<g id="edge3" class="edge"><title>node2&#45;&gt;node5</title>
<path fill="none" stroke="#607d8b" d="M299.578,-215.787C308.938,-196.729 326.785,-166.755 352.012,-152 407.306,-119.659 433.629,-152.315 495.012,-134 499.989,-132.515 505.092,-130.526 509.992,-128.348"/>
<polygon fill="#607d8b" stroke="#607d8b" points="511.562,-131.478 519.079,-124.012 508.547,-125.16 511.562,-131.478"/>
<text text-anchor="middle" x="435.012" y="-163.3" font-family="Times,serif" font-size="14.00" fill="#7f8c8d">if params.transcoding_success</text>
</g>
<!-- node3&#45;&gt;node2 -->
<g id="edge6" class="edge"><title>node3&#45;&gt;node2</title>
<path fill="none" stroke="#2ecc71" d="M224.326,-128.878C221.267,-147.277 219.235,-176.906 232.012,-198 234.677,-202.4 238.12,-206.305 242.007,-209.759"/>
<polygon fill="#2ecc71" stroke="#2ecc71" points="239.88,-212.539 249.943,-215.854 244.144,-206.987 239.88,-212.539"/>
<text text-anchor="middle" x="255.012" y="-171.3" font-family="Times,serif" font-size="14.00" fill="#7f8c8d">promote</text>
</g>
<!-- node3&#45;&gt;node4 -->
<g id="edge7" class="edge"><title>node3&#45;&gt;node4</title>
<path fill="none" stroke="#3498db" d="M228.736,-92.787C229.701,-81.4178 231.923,-66.3873 237.012,-54 238.459,-50.4774 240.322,-46.9692 242.377,-43.6095"/>
<polygon fill="#3498db" stroke="#3498db" points="245.395,-45.3952 248.115,-35.1553 239.603,-41.4645 245.395,-45.3952"/>
<text text-anchor="middle" x="257.512" y="-58.3" font-family="Times,serif" font-size="14.00" fill="#7f8c8d">demote</text>
</g>
<!-- 0 -->
<g id="node6" class="node"><title>0</title>
<ellipse fill="none" stroke="#607d8b" cx="447.012" cy="-402" rx="9.35477" ry="9.8"/>
<text text-anchor="middle" x="447.012" y="-398.6" font-family="arial" font-size="13.00">X</text>
</g>
<!-- 0&#45;&gt;node1 -->
<g id="edge8" class="edge"><title>0&#45;&gt;node1</title>
<path fill="none" stroke="#607d8b" d="M447.012,-391.83C447.012,-384.622 447.012,-374.188 447.012,-364.352"/>
<polygon fill="#607d8b" stroke="#607d8b" points="450.512,-364.096 447.012,-354.096 443.512,-364.096 450.512,-364.096"/>
</g>
</g>
</svg>
